<?xml version="1.0" encoding="UTF-8"?>
<svg width="195.56mm" height="180.02mm" version="1.1" viewBox="0 0 195.56 180.02" xmlns="http://www.w3.org/2000/svg" xmlns:cc="http://creativecommons.org/ns#" xmlns:dc="http://purl.org/dc/elements/1.1/" xmlns:rdf="http://www.w3.org/1999/02/22-rdf-syntax-ns#">
 <metadata>
  <rdf:RDF>
   <cc:Work rdf:about="">
    <dc:format>image/svg+xml</dc:format>
    <dc:type rdf:resource="http://purl.org/dc/dcmitype/StillImage"/>
    <dc:title/>
   </cc:Work>
  </rdf:RDF>
 </metadata>
 <g transform="translate(234.12 -42.701)">
  <path transform="matrix(.26458 0 0 .26458 -303.1 14.817)" d="m581.72 260.56s13.855 104.44-7.4602 116.17 126.82 12.789 126.82 12.789-33.038-90.588-18.118-118.3z" fill="#fff" stroke="#000" stroke-width="1.0016"/>
  <g transform="matrix(.26458 0 0 .26458 -250 42.701)">
   <circle cx="435.92" cy="118.41" r="73.536" fill="#fff" stroke="#000"/>
   <path transform="translate(-200.69 -105.39)" d="m809.26 390.04-12.32 56.1-26.05 118.69-0.78 6.5-8.99 75.25-5.98 49.99-4.01 33.58c-24.38 12.53-42.05 21.18-42.05 21.18s-1.52-7.62-3.97-17.37c-17.11 5.13-48.77 13.64-75.6 15.34 9.77 10.89 14.26 21.12 8.17 28.67-18.38 22.76-94.26-24.92-120.8-42.7a71.841 71.841 0 0 0-0.7 12.86l-20.31-15.62 2.01-35.94 3.39-60.81 4.26-76.26a80.064 80.064 0 0 1-3.37-10.03c-6.22-22.12-13.77-66.29-19.56-103.33-4.66-29.81-8.16-55-8.9-60.36-0.1-0.7-0.15-1.06-0.15-1.06l112.43-49.68c7.99 18.53 45.3 24.1 45.3 24.1 30.91-2.13 55.14-18.43 55.14-18.43z" fill="#fff" stroke="#000"/>
   <path transform="translate(-200.69 -105.39)" d="m717.61 730.02s-4.76 1.63-12.5 3.94c-17.11 5.13-48.77 13.64-75.6 15.34-23.1 1.48-42.62-2.08-46.19-17.15-1.53-6.48 0.64-11.81 5.37-16.19 14.12-13.09 51-17.78 80.25-19.39 8.26-0.45 15.9-0.66 22.26-0.74 10.8-0.14 17.88 0.08 17.88 0.08l0.17 0.66z" fill="#a0616a"/>
   <path transform="translate(-200.69 -105.39)" d="m575.43 154.24-13.749-5.5045s28.749-31.651 68.747-28.898l-11.25-12.385s27.499-11.009 52.498 17.89c13.141 15.191 28.346 33.048 37.825 53.163h14.725l-6.1455 13.532 21.509 13.532-22.077-2.4306a75.617 75.617 0 0 1 0.5991 22.445 29.041 29.041 0 0 1-10.634 18.998s-17.052-35.296-17.052-40.8v13.761s-13.749-12.385-13.749-20.642l-7.4996 9.6328-3.7498-15.137-46.248 15.137 7.4996-12.385-28.749 4.1283 11.25-15.137s-32.499 17.89-33.749 33.027c-1.2498 15.137-10.762 29.481-10.762 29.481s-25.486-70.764 10.762-91.406z"/>
   <path transform="translate(-200.69 -105.39)" d="m889.19 647.95c-7.49 8.12-26.05 20.35-48.55 33.59-8.37 4.92-17.28 9.99-26.37 15.03-21.69 12.03-44.4 23.95-63.14 33.58-24.38 12.53-42.05 21.18-42.05 21.18s-1.52-7.62-3.97-17.37c-3.28-13.05-8.22-29.92-13.37-37.39-0.18-0.26-0.36-0.5-0.54-0.74-1.5-1.97-3.01-3.12-4.5-3.12l74.42-46.13 32.16-19.94-23.17-55.31-29.06-69.38 17.54-55.81 17.63-56.1h33.04s10.94 23.88 24.93 57.18c2.09 4.98 4.25 10.17 6.45 15.53 28.78 70 64.66 167.75 48.55 185.2z" fill="#fff" stroke="#000"/>
   <path transform="translate(-200.69 -105.39)" d="m637.68 777.97c-18.38 22.76-94.26-24.92-120.8-42.7-5.78-3.87-9.22-6.32-9.22-6.32l24.28-32.38 7.69-10.25s6.88 3.65 17.05 9.59c0.37 0.22 0.74 0.44 1.12 0.66 8.77 5.15 19.78 11.88 30.89 19.39 15.33 10.37 30.83 22.2 40.82 33.34 9.77 10.89 14.26 21.12 8.17 28.67z" fill="#a0616a"/>
   <g fill="#fff" stroke="#000">
    <g>
     <path transform="translate(-200.69 -105.39)" d="m556.68 695.91a47.782 47.782 0 0 0-8.1 0.66c-22.99 3.95-29.77 24.76-31.7 38.7a71.841 71.841 0 0 0-0.7 12.86l-20.31-15.62-7.4-5.69c-17.81-6.21-33.68-17.24-47.44-30.25a238.48 238.48 0 0 1-31.95-37.89 334.15 334.15 0 0 1-24.72-42.4 31.184 31.184 0 0 1-0.43-26.45l25.15-56.05 36.76-81.92q0.40494-2.9249 0.88995-5.72c7.29-41.8 26.82-60.36 26.82-60.36h14.92l9.98 60.36 12.4 74.99-8.69 28.34-20.08 65.45 19.19 20.84z"/>
     <path transform="translate(-200.69 -105.39)" d="m864.34 765.77v6.07a13.34 13.34 0 0 1-0.91 4.87 13.688 13.688 0 0 1-0.97 2 13.437 13.437 0 0 1-11.55 6.56h-446.55a13.437 13.437 0 0 1-11.55-6.56 13.682 13.682 0 0 1-0.97-2 13.34 13.34 0 0 1-0.91-4.87v-6.07a13.426 13.426 0 0 1 13.43-13.43h25.74v-2.83a0.55908 0.55908 0 0 1 0.56-0.56h13.43a0.55908 0.55908 0 0 1 0.56 0.56v2.83h8.39v-2.83a0.55908 0.55908 0 0 1 0.56-0.56h13.43a0.55908 0.55908 0 0 1 0.56 0.56v2.83h8.4v-2.83a0.55908 0.55908 0 0 1 0.56-0.56h13.43a0.55908 0.55908 0 0 1 0.56 0.56v2.83h8.39v-2.83a0.55908 0.55908 0 0 1 0.56-0.56h13.43a0.55908 0.55908 0 0 1 0.56 0.56v2.83h8.39v-2.83a0.55908 0.55908 0 0 1 0.56-0.56h13.43a0.55908 0.55908 0 0 1 0.56 0.56v2.83h8.4v-2.83a0.55908 0.55908 0 0 1 0.56-0.56h13.43a0.55908 0.55908 0 0 1 0.56 0.56v2.83h8.39v-2.83a0.55908 0.55908 0 0 1 0.56-0.56h105.2a0.55908 0.55908 0 0 1 0.56 0.56v2.83h8.4v-2.83a0.55908 0.55908 0 0 1 0.56-0.56h13.43a0.56556 0.56556 0 0 1 0.56 0.56v2.83h8.39v-2.83a0.55908 0.55908 0 0 1 0.56-0.56h13.43a0.55909 0.55909 0 0 1 0.56005 0.56v2.83h8.39v-2.83a0.55908 0.55908 0 0 1 0.56-0.56h13.43a0.55908 0.55908 0 0 1 0.56 0.56v2.83h8.4v-2.83a0.55908 0.55908 0 0 1 0.56-0.56h13.43a0.557 0.557 0 0 1 0.55 0.56v2.83h8.4v-2.83a0.55908 0.55908 0 0 1 0.56-0.56h13.43a0.55908 0.55908 0 0 1 0.56 0.56v2.83h8.39v-2.83a0.55908 0.55908 0 0 1 0.56-0.56h13.43a0.55908 0.55908 0 0 1 0.56 0.56v2.83h39.17a13.426 13.426 0 0 1 13.43 13.43z"/>
     <rect x="60.5" y="671.33" width="733" height="2"/>
     <path transform="translate(-200.69 -105.39)" d="m828.38 510.15h-166.44v-3.4305h-75.472v3.4305h-167.13a11.259 11.259 0 0 0-11.259 11.259v227.91a11.259 11.259 0 0 0 11.259 11.259h409.04a11.259 11.259 0 0 0 11.259-11.259v-227.91a11.259 11.259 0 0 0-11.259-11.259z"/>
    </g>
    <circle cx="423.5" cy="484.33" r="25" stroke-miterlimit="10" stroke-opacity=".54419" stroke-width="2"/>
    <circle cx="407.3" cy="494.72" r="25"/>
   </g>
   <path d="m91.013 642.59v34h34v-34zm32.52 32.52h-31.05v-31.04h31.05z" fill="#3f3d56"/>
   <path d="m737.82 640.71v34h34v-34zm32.52 32.52h-31.05v-31.04h31.05z" fill="#fff" stroke="#000"/>
   <path transform="translate(-200.69 -105.39)" d="m351.28 705.14c0.93308 31.95-17.735 43.659-41.163 44.343q-0.81629 0.0238-1.6252 0.0292-1.6297 0.0124-3.2277-0.0543c-21.188-0.87961-37.96-12.127-38.828-41.84-0.898-30.75 37.269-70.703 40.132-73.658l5e-3 -3e-3c0.10878-0.11262 0.16448-0.169 0.16448-0.169s43.609 39.405 44.542 71.352z" fill="#fff" stroke="#000"/>
   <path transform="translate(-200.69 -105.39)" d="m308.43 744.64 14.882-22.132-14.852 24.512 0.031 2.4904q-1.6297 0.0124-3.2277-0.0543l0.73816-32.012-0.0202-0.247 0.0272-0.0477 0.0707-3.0249-16.298-23.663 16.279 21.399 0.0578 0.63938 0.55752-24.186-14.077-24.533 14.117 20.284-0.14735-50.108 3.2e-4 -0.16678 5e-3 0.164 0.93446 39.491 12.83-16.041-12.788 19.444 0.28 21.634 11.806-21.114-11.762 24.295 0.15587 12.03 17.169-29.411-17.117 33.608z" fill="#3f3d56"/>
   <path d="m798.59 599.59c0.93313 31.95-17.735 43.659-41.163 44.343q-0.81628 0.0238-1.6252 0.0292-1.6297 0.0124-3.2277-0.0543c-21.188-0.87961-37.96-12.127-38.828-41.84-0.898-30.75 37.269-70.703 40.132-73.658l5e-3 -3e-3c0.10878-0.11262 0.16448-0.169 0.16448-0.169s43.609 39.405 44.542 71.352z" fill="#fff" stroke="#000"/>
   <path transform="translate(-200.69 -105.39)" d="m956.43 744.64 14.882-22.132-14.852 24.512 0.031 2.4904q-1.6297 0.0124-3.2277-0.0543l0.73816-32.012-0.0202-0.247 0.0272-0.0477 0.0707-3.0249-16.298-23.663 16.279 21.399 0.0578 0.63938 0.55752-24.186-14.077-24.533 14.117 20.284-0.14735-50.108 3.2e-4 -0.16678 5e-3 0.164 0.93446 39.491 12.83-16.041-12.788 19.444 0.28 21.634 11.806-21.114-11.762 24.295 0.15587 12.03 17.169-29.411-17.117 33.608z"/>
  </g>
 </g>
</svg>
